<svg xmlns="http://www.w3.org/2000/svg" width="32" height="32" viewBox="0 0 32 32">
  <defs>
    <linearGradient id="grad1" x1="0%" y1="0%" x2="100%" y2="100%">
      <stop offset="0%" style="stop-color:#4CAF50;stop-opacity:1" />
      <stop offset="100%" style="stop-color:#2196F3;stop-opacity:1" />
    </linearGradient>
    <linearGradient id="grad2" x1="0%" y1="0%" x2="100%" y2="100%">
      <stop offset="0%" style="stop-color:#FF9800;stop-opacity:1" />
      <stop offset="100%" style="stop-color:#F44336;stop-opacity:1" />
    </linearGradient>
  </defs>
  
  <!-- 左侧文件 (ArcGIS) -->
  <rect x="2" y="6" width="10" height="12" rx="1" fill="url(#grad2)" opacity="0.9"/>
  <rect x="3" y="8" width="8" height="1" fill="white" opacity="0.7"/>
  <rect x="3" y="10" width="6" height="1" fill="white" opacity="0.7"/>
  <rect x="3" y="12" width="7" height="1" fill="white" opacity="0.7"/>
  <rect x="3" y="14" width="5" height="1" fill="white" opacity="0.7"/>
  
  <!-- 转换箭头 -->
  <path d="M13 12 L19 12 M17 10 L19 12 L17 14" stroke="#666" stroke-width="2" stroke-linecap="round" stroke-linejoin="round" fill="none"/>
  
  <!-- 右侧文件 (GeoJSON) -->
  <rect x="20" y="6" width="10" height="12" rx="1" fill="url(#grad1)" opacity="0.9"/>
  <circle cx="24" cy="10" r="1.5" fill="white" opacity="0.8"/>
  <circle cx="27" cy="12" r="1" fill="white" opacity="0.8"/>
  <circle cx="22" cy="13" r="0.8" fill="white" opacity="0.8"/>
  <path d="M23 15 Q25 14 27 15 Q26 16 24 16 Q23 16 23 15" fill="white" opacity="0.6"/>
  
  <!-- 装饰性元素 -->
  <circle cx="16" cy="26" r="2" fill="#4CAF50" opacity="0.3"/>
  <circle cx="28" cy="4" r="1.5" fill="#2196F3" opacity="0.3"/>
  <circle cx="4" cy="28" r="1" fill="#FF9800" opacity="0.3"/>
</svg> 